<svg xmlns="http://www.w3.org/2000/svg" viewBox="0 0 84.08 26.8"><defs><style>.cls-1{fill:#f78411;}.cls-2{fill:#30b1f5;}.cls-3{fill:#fff;}</style></defs><g id="Layer_2" data-name="Layer 2"><g id="Layer_1-2" data-name="Layer 1"><polygon class="cls-1" points="61.28 2.21 57.08 7.14 54.19 10.54 54.14 10.54 43.49 10.57 43.48 7.17 51.25 7.14 52.61 7.14 54.17 5.31 58.68 0 61.28 2.21"/><polygon class="cls-2" points="64.85 7.17 64.84 10.57 54.19 10.54 57.08 7.14 64.85 7.17"/><polygon class="cls-3" points="54.17 5.31 52.61 7.14 51.25 7.14 47.05 2.21 49.65 0 54.17 5.31"/><path class="cls-3" d="M3.3,26A6.06,6.06,0,0,1,.93,23.7,7.08,7.08,0,0,1,0,20a7.17,7.17,0,0,1,.92-3.74,6,6,0,0,1,2.41-2.31,6.87,6.87,0,0,1,3.17-.77,6,6,0,0,1,3.86,1.34V13.42H14V26.54H10.36V25.17A5.28,5.28,0,0,1,6.29,26.8,6.24,6.24,0,0,1,3.3,26ZM9.44,22.9a3,3,0,0,0,.92-2.29V19.35a3,3,0,0,0-.93-2.28,3.24,3.24,0,0,0-2.3-.87,3.22,3.22,0,0,0-2.46,1A3.87,3.87,0,0,0,3.72,20a3.83,3.83,0,0,0,1,2.78,3.31,3.31,0,0,0,2.48,1A3.21,3.21,0,0,0,9.44,22.9Z"/><path class="cls-3" d="M17.28,7.39H21V26.54H17.28Z"/><path class="cls-3" d="M24.42,11.35a2.09,2.09,0,0,1,0-3,2.1,2.1,0,0,1,3,0,2.11,2.11,0,0,1,0,3,2.1,2.1,0,0,1-3,0Zm-.34,2.07h3.67V26.54H24.08Z"/><path class="cls-3" d="M33.2,25.8a3.86,3.86,0,0,1-1.07-3V16.46H29.79v-3h2.34V9.67h.47l3.17,1.1v2.65h2.78v3H35.77v6a1.24,1.24,0,0,0,.37,1,1.5,1.5,0,0,0,1,.34,3.66,3.66,0,0,0,1.05-.19l.18.11v2.81a10.42,10.42,0,0,1-2.31.26A4.1,4.1,0,0,1,33.2,25.8Z"/><path class="cls-3" d="M43.42,26a6,6,0,0,1-2.4-2.4A7.18,7.18,0,0,1,40.15,20a6.73,6.73,0,0,1,.93-3.54A6.59,6.59,0,0,1,43.56,14a6.68,6.68,0,0,1,3.33-.87,7.11,7.11,0,0,1,3.44.81,5.75,5.75,0,0,1,2.32,2.34,7.41,7.41,0,0,1,.82,3.59v1H43.61a3.18,3.18,0,0,0,1,2.16,3.34,3.34,0,0,0,2.32.8,2.9,2.9,0,0,0,3-2l3.07.31.18.31a6.17,6.17,0,0,1-2.34,3.27,6.93,6.93,0,0,1-4,1.09A7.1,7.1,0,0,1,43.42,26ZM50,18.51a2.71,2.71,0,0,0-1-1.89,3.31,3.31,0,0,0-2.15-.71,3.19,3.19,0,0,0-2,.71,3.15,3.15,0,0,0-1.11,1.89Z"/><path class="cls-3" d="M58.65,25.93a6.38,6.38,0,0,1-2.47-2.42A6.76,6.76,0,0,1,55.26,20a6.76,6.76,0,0,1,.92-3.53A6.38,6.38,0,0,1,58.65,14a7,7,0,0,1,3.48-.87,6.83,6.83,0,0,1,4.29,1.31A5.75,5.75,0,0,1,68.55,18l-.21.26-3,.32A2.89,2.89,0,0,0,64.23,17a3.4,3.4,0,0,0-2.1-.62,3.16,3.16,0,0,0-2.37,1A3.66,3.66,0,0,0,58.82,20a3.67,3.67,0,0,0,.94,2.69,3.15,3.15,0,0,0,2.37.95,3.29,3.29,0,0,0,2-.57,3.33,3.33,0,0,0,1.13-1.71l3,.32.21.23a6.41,6.41,0,0,1-2.25,3.64,6.68,6.68,0,0,1-4.17,1.27A7,7,0,0,1,58.65,25.93Z"/><path class="cls-3" d="M71.12,7.39H74.8v7.66a5.67,5.67,0,0,1,2-1.36,6.28,6.28,0,0,1,2.54-.53,4.83,4.83,0,0,1,3.44,1.23,4.38,4.38,0,0,1,1.31,3.33v8.82H80.41v-7.9a2.26,2.26,0,0,0-.64-1.74,2.35,2.35,0,0,0-1.67-.59,3.74,3.74,0,0,0-1.84.48,4.46,4.46,0,0,0-1.46,1.38v8.37H71.12Z"/></g></g></svg>